<svg width="17" height="17" viewBox="0 0 17 17" fill="none" xmlns="http://www.w3.org/2000/svg">
<path d="M8.25 13.5C8.93944 13.5 9.62213 13.3642 10.2591 13.1004C10.896 12.8365 11.4748 12.4498 11.9623 11.9623C12.4498 11.4748 12.8365 10.896 13.1004 10.2591C13.3642 9.62213 13.5 8.93944 13.5 8.25C13.5 7.56056 13.3642 6.87787 13.1004 6.24091C12.8365 5.60395 12.4498 5.0252 11.9623 4.53769C11.4748 4.05018 10.896 3.66347 10.2591 3.39963C9.62213 3.1358 8.93944 3 8.25 3C6.85761 3 5.52225 3.55312 4.53769 4.53769C3.55312 5.52225 3 6.85761 3 8.25C3 9.64239 3.55312 10.9777 4.53769 11.9623C5.52225 12.9469 6.85761 13.5 8.25 13.5ZM8.25 16.47C7.8375 16.47 7.5 16.1625 7.5 15.75V15.69C7.5 15.2775 7.8375 14.94 8.25 14.94C8.6625 14.94 9 15.2775 9 15.69C9 16.1025 8.6625 16.47 8.25 16.47ZM13.605 14.355C13.41 14.355 13.2225 14.28 13.0725 14.1375L12.975 14.04C12.9056 13.9706 12.8505 13.8881 12.8129 13.7974C12.7753 13.7067 12.756 13.6094 12.756 13.5112C12.756 13.4131 12.7753 13.3158 12.8129 13.2251C12.8505 13.1344 12.9056 13.0519 12.975 12.9825C13.0444 12.9131 13.1269 12.858 13.2176 12.8204C13.3083 12.7828 13.4056 12.7635 13.5037 12.7635C13.6019 12.7635 13.6992 12.7828 13.7899 12.8204C13.8806 12.858 13.9631 12.9131 14.0325 12.9825L14.13 13.08C14.2342 13.1843 14.3052 13.3171 14.3341 13.4616C14.363 13.6062 14.3485 13.7561 14.2923 13.8924C14.2362 14.0288 14.141 14.1454 14.0187 14.2277C13.8964 14.31 13.7524 14.3543 13.605 14.355ZM2.895 14.355C2.7 14.355 2.5125 14.28 2.3625 14.1375C2.29297 14.0681 2.23781 13.9857 2.20018 13.895C2.16254 13.8042 2.14317 13.707 2.14317 13.6088C2.14317 13.5105 2.16254 13.4133 2.20018 13.3225C2.23781 13.2318 2.29297 13.1494 2.3625 13.08L2.46 12.9825C2.52944 12.9131 2.61187 12.858 2.70259 12.8204C2.79332 12.7828 2.89055 12.7635 2.98875 12.7635C3.08695 12.7635 3.18418 12.7828 3.27491 12.8204C3.36563 12.858 3.44806 12.9131 3.5175 12.9825C3.58694 13.0519 3.64202 13.1344 3.6796 13.2251C3.71717 13.3158 3.73652 13.4131 3.73652 13.5112C3.73652 13.6094 3.71717 13.7067 3.6796 13.7974C3.64202 13.8881 3.58694 13.9706 3.5175 14.04L3.42 14.1375C3.2775 14.28 3.0825 14.355 2.895 14.355ZM15.75 9H15.69C15.2775 9 14.94 8.6625 14.94 8.25C14.94 7.8375 15.2775 7.5 15.69 7.5C16.1025 7.5 16.47 7.8375 16.47 8.25C16.47 8.6625 16.1625 9 15.75 9ZM0.81 9H0.75C0.3375 9 0 8.6625 0 8.25C0 7.8375 0.3375 7.5 0.75 7.5C1.1625 7.5 1.53 7.8375 1.53 8.25C1.53 8.6625 1.2225 9 0.81 9ZM13.5075 3.7425C13.3125 3.7425 13.125 3.6675 12.975 3.525C12.9055 3.45561 12.8503 3.3732 12.8127 3.28247C12.775 3.19174 12.7557 3.09448 12.7557 2.99625C12.7557 2.89802 12.775 2.80076 12.8127 2.71003C12.8503 2.6193 12.9055 2.53689 12.975 2.4675L13.0725 2.37C13.1419 2.30056 13.2244 2.24548 13.3151 2.2079C13.4058 2.17033 13.5031 2.15098 13.6012 2.15098C13.6994 2.15098 13.7967 2.17033 13.8874 2.2079C13.9781 2.24548 14.0606 2.30056 14.13 2.37C14.1994 2.43944 14.2545 2.52187 14.2921 2.61259C14.3297 2.70332 14.349 2.80055 14.349 2.89875C14.349 2.99695 14.3297 3.09418 14.2921 3.18491C14.2545 3.27563 14.1994 3.35806 14.13 3.4275L14.0325 3.525C13.89 3.6675 13.7025 3.7425 13.5075 3.7425ZM2.9925 3.7425C2.7975 3.7425 2.61 3.6675 2.46 3.525L2.3625 3.42C2.29306 3.35056 2.23798 3.26813 2.2004 3.17741C2.16283 3.08668 2.14348 2.98945 2.14348 2.89125C2.14348 2.79305 2.16283 2.69582 2.2004 2.60509C2.23798 2.51437 2.29306 2.43194 2.3625 2.3625C2.43194 2.29306 2.51437 2.23798 2.60509 2.2004C2.69582 2.16283 2.79305 2.14348 2.89125 2.14348C2.98945 2.14348 3.08668 2.16283 3.17741 2.2004C3.26813 2.23798 3.35056 2.29306 3.42 2.3625L3.5175 2.46C3.81 2.7525 3.81 3.225 3.5175 3.5175C3.375 3.6675 3.18 3.7425 2.9925 3.7425ZM8.25 1.53C7.8375 1.53 7.5 1.2225 7.5 0.81V0.75C7.5 0.3375 7.8375 0 8.25 0C8.6625 0 9 0.3375 9 0.75C9 1.1625 8.6625 1.53 8.25 1.53Z" fill="#B13EEA"/>
</svg>
